<?xml version="1.0" encoding="UTF-8"?>
<svg width="72px" height="72px" viewBox="0 0 72 72" version="1.1" xmlns="http://www.w3.org/2000/svg" xmlns:xlink="http://www.w3.org/1999/xlink">
    <!-- Generator: Sketch 61.2 (89653) - https://sketch.com -->
    <title>icn_instagram</title>
    <desc>Created with Sketch.</desc>
    <g id="Page-1" stroke="none" stroke-width="1" fill="none" fill-rule="evenodd">
        <g id="Desktop-HD" transform="translate(-343.000000, -112.000000)" fill="#000000">
            <path d="M374.593067,112.00398 L383.407485,112.00398 C389.286543,112.018279 390.67535,112.07178 393.84322,112.216321 C397.67506,112.391093 400.292069,112.999723 402.58197,113.889732 C404.949325,114.809608 406.956989,116.040587 408.958509,118.041963 C410.959886,120.043483 412.190865,122.051147 413.110883,124.418502 C413.96206,126.608842 414.555923,129.098465 414.758907,132.664263 L414.870163,135.139462 C414.95619,137.328534 414.989479,139.29412 414.998249,144.449251 L414.992357,153.716527 C414.973198,158.516429 414.917304,159.92494 414.784152,162.84322 C414.609379,166.67506 414.000749,169.292069 413.110883,171.58197 C412.190865,173.949325 410.959886,175.956989 408.958509,177.958509 C406.956989,179.959886 404.949325,181.190865 402.58197,182.110883 C400.39163,182.96206 397.902008,183.555923 394.336209,183.758907 L391.861011,183.870163 C389.671943,183.95619 387.706372,183.989479 382.551313,183.998249 L373.284008,183.992357 C368.484044,183.973198 367.075532,183.917304 364.157252,183.784152 C360.325412,183.609379 357.708403,183.000749 355.418502,182.110883 C353.051147,181.190865 351.043483,179.959886 349.041963,177.958509 C347.040587,175.956989 345.809608,173.949325 344.889732,171.58197 C344.038419,169.39163 343.444549,166.902008 343.241565,163.336209 L343.11071,160.339544 C343.034927,158.220552 343.007058,156.055221 343.001013,150.688067 L343.00398,143.593067 C343.018279,137.71393 343.07178,136.325122 343.216321,133.157252 C343.391093,129.325412 343.999723,126.708403 344.889732,124.418502 C345.809608,122.051147 347.040587,120.043483 349.041963,118.041963 C351.043483,116.040587 353.051147,114.809608 355.418502,113.889732 C357.608842,113.038419 360.098465,112.444549 363.664263,112.241565 L366.660931,112.11071 C368.537757,112.043588 370.450948,112.014054 374.593067,112.00398 L374.593067,112.00398 Z M385.093618,118.49598 L372.906911,118.49598 C368.591436,118.515545 367.236738,118.569166 364.452921,118.69618 C360.942902,118.856233 359.0367,119.442713 357.768137,119.935733 C356.087724,120.588806 354.88847,121.368922 353.628767,122.628767 C352.368922,123.88847 351.588806,125.087724 350.935733,126.768137 L350.824846,127.060929 C350.376834,128.277222 349.885405,130.053876 349.715692,133.06947 L349.595963,135.81756 C349.526997,137.714768 349.498783,139.590331 349.489776,143.848631 L349.49598,154.093618 C349.515545,158.409036 349.569166,159.763735 349.69618,162.547551 C349.856233,166.05757 350.442713,167.963772 350.935733,169.232335 C351.588806,170.912748 352.369064,172.112003 353.628767,173.371705 C354.88847,174.631551 356.087724,175.411666 357.768137,176.064739 L358.060929,176.175627 C359.277222,176.623639 361.053876,177.115068 364.06947,177.28478 L366.5164,177.393246 C368.787702,177.480628 370.848225,177.508524 376.767096,177.513396 L384.423913,177.507177 C389.277765,177.490106 390.624984,177.437657 393.547551,177.304293 C397.05757,177.14424 398.963772,176.55776 400.232335,176.064739 C401.912748,175.411666 403.112003,174.631551 404.371705,173.371705 C405.631551,172.112003 406.411666,170.912748 407.064739,169.232335 L407.175627,168.939544 C407.623639,167.723251 408.115068,165.946596 408.28478,162.931002 L408.393246,160.483839 C408.480628,158.2123 408.508524,156.151717 408.513396,150.233329 L408.507177,142.576986 C408.490106,137.723333 408.437657,136.375929 408.304293,133.452921 C408.14424,129.942902 407.55776,128.0367 407.064739,126.768137 C406.411666,125.087724 405.631551,123.88847 404.371705,122.628767 C403.112003,121.368922 401.912748,120.588806 400.232335,119.935733 L399.939544,119.824846 C398.723251,119.376834 396.946596,118.885405 393.931002,118.715692 L391.182914,118.595963 C389.601911,118.538492 388.035948,118.50932 385.093618,118.49598 L385.093618,118.49598 Z M379.000306,129.999957 C388.94158,129.999957 397.000515,138.058893 397.000515,148.000306 C397.000515,157.94158 388.94158,166.000515 379.000306,166.000515 C369.058893,166.000515 360.999957,157.94158 360.999957,148.000306 C360.999957,138.058893 369.058893,129.999957 379.000306,129.999957 Z M379.000306,136.315837 C372.547091,136.315837 367.315837,141.547091 367.315837,148.000306 C367.315837,154.453382 372.547091,159.684635 379.000306,159.684635 C385.453382,159.684635 390.684635,154.453382 390.684635,148.000306 C390.684635,141.547091 385.453382,136.315837 379.000306,136.315837 Z M399.000484,123.999864 C401.209674,123.999864 403.000609,125.790798 403.000609,127.999992 C403.000609,130.209186 401.209674,131.999988 399.000484,131.999988 C396.791419,131.999988 395.000484,130.209186 395.000484,127.999992 C395.000484,125.790798 396.791419,123.999864 399.000484,123.999864 Z" id="icn_instagram"></path>
        </g>
    </g>
</svg>